<?xml version="1.0" encoding="UTF-8"?>
<!DOCTYPE svg PUBLIC "-//W3C//DTD SVG 1.1//EN" "http://www.w3.org/Graphics/SVG/1.1/DTD/svg11.dtd">
<svg xmlns="http://www.w3.org/2000/svg" version="1.1" width="1024px" height="1024px" style="shape-rendering:geometricPrecision; text-rendering:geometricPrecision; image-rendering:optimizeQuality; fill-rule:evenodd; clip-rule:evenodd" xmlns:xlink="http://www.w3.org/1999/xlink">
<g><path style="opacity:0.997" fill="#fcfdfd" d="M 253.5,166.5 C 395.5,166.333 537.5,166.5 679.5,167C 719.476,172.321 747.309,193.488 763,230.5C 764.806,236.056 766.139,241.722 767,247.5C 768.391,266.466 768.891,285.466 768.5,304.5C 797.035,313.857 815.868,332.857 825,361.5C 826.299,367.119 826.632,372.786 826,378.5C 811.918,357.945 792.418,346.278 767.5,343.5C 724.864,342.516 682.197,342.183 639.5,342.5C 639.5,331.5 639.5,320.5 639.5,309.5C 669.833,309.5 700.167,309.5 730.5,309.5C 730.83,292.991 730.496,276.658 729.5,260.5C 725.272,232.44 709.272,215.606 681.5,210C 590.833,209.333 500.167,209.333 409.5,210C 398.678,212.816 390.844,219.316 386,229.5C 384.758,243.454 384.091,257.454 384,271.5C 382.526,275.641 379.693,278.474 375.5,280C 350.167,280.333 324.833,280.667 299.5,281C 288.993,285.176 286.16,292.342 291,302.5C 293.341,305.835 296.507,308.002 300.5,309C 325.831,309.5 351.164,309.667 376.5,309.5C 376.5,320.5 376.5,331.5 376.5,342.5C 329.471,342.035 282.471,342.535 235.5,344C 213.185,348.008 196.018,359.508 184,378.5C 183.333,330.167 183.333,281.833 184,233.5C 191.349,194.649 214.516,172.316 253.5,166.5 Z"/></g>
<g><path style="opacity:0.016" fill="#0e0c0d" d="M 202.5,186.5 C 201.5,186.5 200.5,186.5 199.5,186.5C 199.574,182.459 200.907,181.792 203.5,184.5C 203.137,185.183 202.804,185.85 202.5,186.5 Z"/></g>
<g><path style="opacity:0.008" fill="#0f0e0f" d="M 190.5,193.5 C 191.5,193.5 192.5,193.5 193.5,193.5C 193.5,194.5 193.5,195.5 193.5,196.5C 192.5,196.5 191.5,196.5 190.5,196.5C 190.5,195.5 190.5,194.5 190.5,193.5 Z"/></g>
<g><path style="opacity:0.041" fill="#131212" d="M 251.5,165.5 C 251.842,166.338 252.508,166.672 253.5,166.5C 214.516,172.316 191.349,194.649 184,233.5C 183.333,281.833 183.333,330.167 184,378.5C 196.018,359.508 213.185,348.008 235.5,344C 282.471,342.535 329.471,342.035 376.5,342.5C 345.338,343.498 314.004,343.832 282.5,343.5C 266.221,343.081 250.055,344.081 234,346.5C 232.779,347.272 231.779,348.272 231,349.5C 230.261,348.426 229.261,347.759 228,347.5C 217.428,350.747 208.761,355.414 202,361.5C 201.517,362.448 201.351,363.448 201.5,364.5C 199.517,364.157 198.183,364.824 197.5,366.5C 194.437,368.051 191.771,370.218 189.5,373C 190.167,373.667 190.833,374.333 191.5,375C 190.333,376.167 189.167,377.333 188,378.5C 186.375,377.588 185.541,378.255 185.5,380.5C 184.167,380.5 182.833,380.5 181.5,380.5C 182.623,341.02 182.623,301.52 181.5,262C 181.667,251.833 181.833,241.667 182,231.5C 183.037,220.738 186.704,210.738 193,201.5C 194.199,198.274 194.699,194.941 194.5,191.5C 196.143,191.48 197.476,192.147 198.5,193.5C 199.6,190.958 200.934,188.625 202.5,186.5C 204.048,186.179 204.715,185.179 204.5,183.5C 205.822,183.33 206.989,183.663 208,184.5C 210.736,182.971 210.902,181.471 208.5,180C 213.455,178.599 218.122,176.599 222.5,174C 222.381,172.719 222.881,171.552 224,170.5C 224.667,171.167 225.333,171.833 226,172.5C 228.769,170.394 231.769,168.727 235,167.5C 235.414,167.957 235.914,168.291 236.5,168.5C 241.346,166.705 246.346,165.705 251.5,165.5 Z"/></g>
<g><path style="opacity:0.995" fill="#fdfdfd" d="M 388.5,537.5 C 386.167,535.833 384.167,533.833 382.5,531.5C 382.512,528.858 381.179,527.525 378.5,527.5C 377.331,524.489 375.664,521.822 373.5,519.5C 373.15,513.996 373.817,508.663 375.5,503.5C 387.81,491.16 399.477,491.826 410.5,505.5C 410.56,506.043 410.893,506.376 411.5,506.5C 412.5,434.17 412.833,361.836 412.5,289.5C 418.07,272.475 428.736,268.308 444.5,277C 447.057,279.892 449.224,283.059 451,286.5C 451.667,374.833 451.667,463.167 451,551.5C 445.703,563.499 436.536,568.332 423.5,566C 419.888,564.861 416.554,563.194 413.5,561C 405.552,552.546 397.219,544.713 388.5,537.5 Z"/></g>
<g><path style="opacity:0.996" fill="#fdfefe" d="M 527.5,289.5 C 527.667,401.5 527.5,513.5 527,625.5C 522.15,636.677 513.65,641.177 501.5,639C 494.903,636.333 490.737,631.5 489,624.5C 488.5,576.168 488.333,527.834 488.5,479.5C 488.333,415.499 488.5,351.499 489,287.5C 495.069,273.03 505.236,269.197 519.5,276C 523.86,279.561 526.526,284.061 527.5,289.5 Z"/></g>
<g><path style="opacity:0.034" fill="#080707" d="M 528.5,625.5 C 528.833,513.332 528.5,401.332 527.5,289.5C 526.526,284.061 523.86,279.561 519.5,276C 505.236,269.197 495.069,273.03 489,287.5C 488.5,351.499 488.333,415.499 488.5,479.5C 487.501,527.33 487.168,575.33 487.5,623.5C 486.695,536.884 486.695,450.217 487.5,363.5C 486.369,338.848 485.869,314.181 486,289.5C 491.888,271.978 503.388,266.811 520.5,274C 524.877,278.043 528.044,282.876 530,288.5C 529.882,400.994 529.382,513.327 528.5,625.5 Z"/></g>
<g><path style="opacity:0.03" fill="#1b1b1b" d="M 388.5,537.5 C 397.219,544.713 405.552,552.546 413.5,561C 416.554,563.194 419.888,564.861 423.5,566C 436.536,568.332 445.703,563.499 451,551.5C 451.667,463.167 451.667,374.833 451,286.5C 449.224,283.059 447.057,279.892 444.5,277C 428.736,268.308 418.07,272.475 412.5,289.5C 411.833,361.5 411.167,433.5 410.5,505.5C 399.477,491.826 387.81,491.16 375.5,503.5C 378.671,496.491 384.171,493.158 392,493.5C 395.235,493.582 398.402,494.082 401.5,495C 404.312,496.977 406.978,499.144 409.5,501.5C 410.785,435.332 410.785,369.165 409.5,303C 408.594,294.672 410.094,286.838 414,279.5C 422.355,269.847 432.188,268.013 443.5,274C 452.002,280.592 455.669,289.758 454.5,301.5C 453.698,384.162 453.198,466.829 453,549.5C 448.159,565.013 437.659,570.846 421.5,567C 408.543,559.553 397.543,549.719 388.5,537.5 Z"/></g>
<g><path style="opacity:0.035" fill="#110f0f" d="M 729.5,260.5 C 729.5,276.5 729.5,292.5 729.5,308.5C 699.329,308.169 669.329,308.502 639.5,309.5C 639.5,320.5 639.5,331.5 639.5,342.5C 682.197,342.183 724.864,342.516 767.5,343.5C 754.344,344.496 741.01,344.829 727.5,344.5C 702.299,345.039 677.132,345.373 652,345.5C 647.856,344.836 643.689,344.336 639.5,344C 637.695,334.251 636.695,324.251 636.5,314C 636.274,311.329 636.941,308.996 638.5,307C 668.165,306.5 697.831,306.333 727.5,306.5C 727.667,292.163 727.5,277.829 727,263.5C 723.608,234.777 707.775,217.611 679.5,212C 589.833,211.333 500.167,211.333 410.5,212C 397.438,214.637 389.605,222.471 387,235.5C 386.667,247.833 386.333,260.167 386,272.5C 383.195,279.33 378.028,282.83 370.5,283C 346.5,283.333 322.5,283.667 298.5,284C 291.807,287.512 289.64,293.012 292,300.5C 293.251,303.381 295.417,305.214 298.5,306C 324.92,306.018 351.254,306.684 377.5,308C 378.573,309.313 379.24,310.813 379.5,312.5C 378.713,322.806 378.213,333.14 378,343.5C 346.069,344.832 314.236,344.832 282.5,343.5C 314.004,343.832 345.338,343.498 376.5,342.5C 376.5,331.5 376.5,320.5 376.5,309.5C 351.164,309.667 325.831,309.5 300.5,309C 296.507,308.002 293.341,305.835 291,302.5C 286.16,292.342 288.993,285.176 299.5,281C 324.833,280.667 350.167,280.333 375.5,280C 379.693,278.474 382.526,275.641 384,271.5C 384.091,257.454 384.758,243.454 386,229.5C 390.844,219.316 398.678,212.816 409.5,210C 500.167,209.333 590.833,209.333 681.5,210C 709.272,215.606 725.272,232.44 729.5,260.5 Z"/></g>
<g><path style="opacity:0.055" fill="#101010" d="M 639.5,241.5 C 655.837,241.333 672.17,241.5 688.5,242C 702.289,248.762 706.122,259.262 700,273.5C 696.469,278.705 691.636,281.871 685.5,283C 670.833,283.667 656.167,283.667 641.5,283C 638.392,281.241 635.059,280.408 631.5,280.5C 629.468,276.758 627.635,272.758 626,268.5C 624.156,256.187 628.656,247.187 639.5,241.5 Z"/></g>
<g><path style="opacity:0.996" fill="#fbfcfc" d="M 640.5,243.5 C 656.571,243.046 672.571,243.546 688.5,245C 702.052,253.076 704.052,263.409 694.5,276C 692.112,277.861 689.446,279.194 686.5,280C 670.833,280.667 655.167,280.667 639.5,280C 631.619,276.415 627.619,270.249 627.5,261.5C 628.8,253.215 633.134,247.215 640.5,243.5 Z"/></g>
<g><path style="opacity:0.563" fill="#676667" d="M 729.5,260.5 C 730.496,276.658 730.83,292.991 730.5,309.5C 700.167,309.5 669.833,309.5 639.5,309.5C 669.329,308.502 699.329,308.169 729.5,308.5C 729.5,292.5 729.5,276.5 729.5,260.5 Z"/></g>
<g><path style="opacity:0.032" fill="#0c0b0b" d="M 628.5,538.5 C 621.062,545.437 613.729,552.603 606.5,560C 596.007,568.322 584.673,569.655 572.5,564C 567.761,560.687 564.928,556.187 564,550.5C 563.587,462.828 563.254,375.161 563,287.5C 569.815,271.226 581.315,266.726 597.5,274C 601.187,277.21 604.021,281.044 606,285.5C 605.463,355.162 605.463,424.829 606,494.5C 606.333,496.167 606.667,497.833 607,499.5C 618.385,490.052 629.385,490.386 640,500.5C 645.455,508.662 645.788,516.996 641,525.5C 636.63,529.702 632.463,534.036 628.5,538.5 Z"/></g>
<g><path style="opacity:0.995" fill="#fafbfb" d="M 580.5,272.5 C 592.142,271.658 599.975,276.658 604,287.5C 604.333,359.833 604.667,432.167 605,504.5C 615.788,492.037 627.122,491.37 639,502.5C 643.667,509.833 643.667,517.167 639,524.5C 627.194,536.306 615.36,548.14 603.5,560C 592.946,567.959 582.279,568.292 571.5,561C 568.394,557.368 566.227,553.201 565,548.5C 564.333,461.833 564.333,375.167 565,288.5C 567.685,280.65 572.852,275.316 580.5,272.5 Z"/></g>
<g><path style="opacity:0.116" fill="#0e0d0d" d="M 727.5,344.5 C 741.01,344.829 754.344,344.496 767.5,343.5C 792.418,346.278 811.918,357.945 826,378.5C 826.632,372.786 826.299,367.119 825,361.5C 815.868,332.857 797.035,313.857 768.5,304.5C 768.891,285.466 768.391,266.466 767,247.5C 766.139,241.722 764.806,236.056 763,230.5C 747.309,193.488 719.476,172.321 679.5,167C 537.5,166.5 395.5,166.333 253.5,166.5C 252.508,166.672 251.842,166.338 251.5,165.5C 395.46,164.337 539.46,164.17 683.5,165C 697.711,167.015 711.044,171.515 723.5,178.5C 727.249,176.889 729.249,178.223 729.5,182.5C 730.086,182.291 730.586,181.957 731,181.5C 732.74,182.716 733.74,184.382 734,186.5C 739.333,190.5 744,195.167 748,200.5C 748.71,199.027 749.876,198.36 751.5,198.5C 751.64,200.124 750.973,201.29 749.5,202C 752.347,205.056 755.347,207.89 758.5,210.5C 758.559,214.687 759.892,218.687 762.5,222.5C 763.325,223.386 764.325,223.719 765.5,223.5C 765.579,224.93 765.246,226.264 764.5,227.5C 767.418,235.588 769.251,243.921 770,252.5C 770.333,268.833 770.667,285.167 771,301.5C 774.984,303.718 779.15,305.551 783.5,307C 787.167,309.5 790.833,312 794.5,314.5C 795.427,312.054 797.094,311.221 799.5,312C 800.274,314.405 800.774,316.905 801,319.5C 803.167,321.667 805.333,323.833 807.5,326C 809.134,326.494 810.801,326.66 812.5,326.5C 812.185,328.226 812.019,329.893 812,331.5C 815.053,334.887 817.72,338.553 820,342.5C 821.757,342.133 823.257,342.966 824.5,345C 823.643,345.689 822.977,346.522 822.5,347.5C 826.913,356.9 829.58,366.733 830.5,377C 830.852,379.193 830.352,381.36 829,383.5C 824.547,380.984 821.213,377.317 819,372.5C 812.001,364.116 803.501,358.282 793.5,355C 790.592,351.308 786.926,350.141 782.5,351.5C 782.5,350.5 782.5,349.5 782.5,348.5C 777.54,347.511 772.54,346.678 767.5,346C 753.994,345.831 740.66,345.331 727.5,344.5 Z"/></g>
<g><path style="opacity:0.004" fill="#181515" d="M 197.5,366.5 C 198.833,367.167 198.833,367.167 197.5,366.5 Z"/></g>
<g><path style="opacity:0.008" fill="#1b1a1a" d="M 215.5,368.5 C 216.833,369.167 216.833,369.167 215.5,368.5 Z"/></g>
<g><path style="opacity:0.016" fill="#131210" d="M 185.5,380.5 C 187.332,381.14 187.665,382.14 186.5,383.5C 184.481,382.867 184.147,381.867 185.5,380.5 Z"/></g>
<g><path style="opacity:0.02" fill="#121212" d="M 200.5,384.5 C 202.973,384.947 203.14,385.947 201,387.5C 199.272,386.648 199.105,385.648 200.5,384.5 Z"/></g>
<g><path style="opacity:0.004" fill="#191818" d="M 773.5,859.5 C 771.517,859.157 770.183,859.824 769.5,861.5C 767.856,861.714 766.356,861.38 765,860.5C 760.178,862.577 755.512,864.911 751,867.5C 750.586,867.043 750.086,866.709 749.5,866.5C 747.362,867.405 745.195,868.405 743,869.5C 741.938,868.903 740.772,868.57 739.5,868.5C 734.519,869.165 729.519,869.665 724.5,870C 577.167,870.667 429.833,870.667 282.5,870C 267.822,869.706 253.988,866.206 241,859.5C 240.632,860.91 239.799,861.91 238.5,862.5C 238.306,860.93 238.306,859.43 238.5,858C 236.06,856.697 233.56,855.53 231,854.5C 229.7,855.707 228.2,856.374 226.5,856.5C 226.5,855.5 226.5,854.5 226.5,853.5C 227.552,853.649 228.552,853.483 229.5,853C 221.182,846.681 213.516,839.681 206.5,832C 204.567,831.749 202.734,831.249 201,830.5C 200.667,827.833 200.333,825.167 200,822.5C 190.601,809.309 184.935,794.642 183,778.5C 182.754,762.821 182.254,747.155 181.5,731.5C 182.788,636.707 182.788,541.874 181.5,447C 182.088,439.109 183.088,431.276 184.5,423.5C 186.283,414.069 190.283,405.236 196.5,397C 194.475,395.806 194.141,394.306 195.5,392.5C 196.776,391.355 198.109,391.355 199.5,392.5C 202.818,388.682 206.318,385.015 210,381.5C 210.333,380.167 210.667,378.833 211,377.5C 215.345,378.213 218.679,376.547 221,372.5C 221.333,372.833 221.667,373.167 222,373.5C 230.3,369.216 239.133,366.716 248.5,366C 291.669,365.169 334.669,365.335 377.5,366.5C 377.832,402.671 377.498,438.671 376.5,474.5C 376.5,438.5 376.5,402.5 376.5,366.5C 334.832,366.333 293.165,366.5 251.5,367C 221.569,370.263 200.736,385.763 189,413.5C 186.391,419.934 184.725,426.601 184,433.5C 183.333,545.5 183.333,657.5 184,769.5C 190.465,823.629 220.298,856.462 273.5,868C 425.833,868.667 578.167,868.667 730.5,868C 776.325,862.173 806.492,837.339 821,793.5C 823.309,784.955 824.976,776.289 826,767.5C 826.667,657.5 826.667,547.5 826,437.5C 822.924,410.129 809.758,389.295 786.5,375C 777.01,370.461 767.01,367.794 756.5,367C 717.501,366.5 678.501,366.333 639.5,366.5C 639.333,403.168 639.5,439.835 640,476.5C 641.167,479 643,480.833 645.5,482C 655.2,482.245 664.866,482.745 674.5,483.5C 674.5,484.167 674.167,484.5 673.5,484.5C 663.52,483.801 653.52,483.301 643.5,483C 640.337,481.52 638.504,479.02 638,475.5C 637.5,438.835 637.333,402.168 637.5,365.5C 671.338,365.654 705.171,365.321 739,364.5C 748.538,364.442 758.038,364.942 767.5,366C 773.143,366.936 778.476,368.77 783.5,371.5C 784.386,370.675 784.719,369.675 784.5,368.5C 785.5,368.5 786.5,368.5 787.5,368.5C 787.67,369.822 787.337,370.989 786.5,372C 789.751,373.577 792.751,375.577 795.5,378C 796.793,378.49 798.127,378.657 799.5,378.5C 799.351,379.552 799.517,380.552 800,381.5C 804.016,385.348 807.849,389.348 811.5,393.5C 812.478,393.023 813.311,392.357 814,391.5C 817.303,393.397 817.136,395.064 813.5,396.5C 821.588,408.926 826.421,422.592 828,437.5C 827.801,548.741 827.468,660.074 827,771.5C 826.097,781.777 823.931,791.777 820.5,801.5C 821.167,802.167 821.833,802.833 822.5,803.5C 821.167,804.167 819.833,804.833 818.5,805.5C 817.112,809.181 815.445,812.681 813.5,816C 815.405,816.826 815.739,817.993 814.5,819.5C 813.459,821.991 812.626,821.991 812,819.5C 809.833,822.333 807.667,825.167 805.5,828C 807.259,829.764 807.426,831.931 806,834.5C 805.333,835.167 804.667,835.833 804,836.5C 803.667,834.833 803.333,833.167 803,831.5C 802.196,833.944 800.696,835.778 798.5,837C 799.167,837.333 799.833,837.667 800.5,838C 799.809,839.067 799.309,840.234 799,841.5C 798.275,839.842 797.108,839.342 795.5,840C 794.321,842.955 792.488,845.788 790,848.5C 789.667,848.167 789.333,847.833 789,847.5C 785.064,848.519 782.564,851.019 781.5,855C 780.101,855.595 778.768,855.428 777.5,854.5C 774.649,855.012 773.316,856.679 773.5,859.5 Z M 315.5,656.5 C 316.911,658.914 318.911,660.581 321.5,661.5C 323.637,664.973 326.637,667.306 330.5,668.5C 331.585,670.587 333.251,671.92 335.5,672.5C 336.585,674.587 338.251,675.92 340.5,676.5C 342.963,680.3 346.296,682.967 350.5,684.5C 352.637,687.973 355.637,690.306 359.5,691.5C 360.585,693.587 362.251,694.92 364.5,695.5C 367.929,699.262 371.929,702.262 376.5,704.5C 377.262,706.262 378.596,707.262 380.5,707.5C 381.262,709.262 382.596,710.262 384.5,710.5C 386.57,712.964 388.404,715.631 390,718.5C 390.912,723.603 389.079,727.436 384.5,730C 372.473,730.793 360.473,730.626 348.5,729.5C 344.512,731.157 344.512,732.824 348.5,734.5C 353.276,740.941 359.276,745.941 366.5,749.5C 367.802,751.822 369.802,753.155 372.5,753.5C 372.5,754.5 372.5,755.5 372.5,756.5C 373.873,756.343 375.207,756.51 376.5,757C 412.272,775.408 450.272,783.075 490.5,780C 537.484,776.722 580.484,762.889 619.5,738.5C 621.764,736.686 624.097,734.853 626.5,733C 625.646,731.978 624.646,731.145 623.5,730.5C 620.549,731.357 617.549,731.357 614.5,730.5C 610.835,726.919 609.668,722.585 611,717.5C 613.661,713.673 616.828,710.339 620.5,707.5C 628.265,702.917 635.932,698.084 643.5,693C 644.252,692.329 644.586,691.496 644.5,690.5C 656.065,683.267 667.065,675.267 677.5,666.5C 683.318,664.024 688.318,660.358 692.5,655.5C 696.03,653.489 699.697,651.655 703.5,650C 710.375,648.521 716.208,650.354 721,655.5C 723.146,658.126 724.479,661.126 725,664.5C 725.667,703.167 725.667,741.833 725,780.5C 724.777,782.881 723.61,784.547 721.5,785.5C 720.641,788.452 718.641,790.285 715.5,791C 707.743,792.236 702.909,789.069 701,781.5C 700.637,777.134 700.637,772.801 701,768.5C 700.439,767.978 699.772,767.645 699,767.5C 636.553,808.497 567.72,828.497 492.5,827.5C 440.647,828.537 391.98,816.87 346.5,792.5C 339.68,787.588 332.68,782.922 325.5,778.5C 320.207,773.708 315.041,768.708 310,763.5C 308.378,763.954 307.212,764.954 306.5,766.5C 307.614,771.446 307.781,776.446 307,781.5C 305.291,789.279 300.458,792.445 292.5,791C 287.162,788.993 283.996,785.159 283,779.5C 282.333,740.833 282.333,702.167 283,663.5C 283.806,660.554 285.139,657.888 287,655.5C 289.852,653.665 292.686,651.831 295.5,650C 298.5,649.333 301.5,649.333 304.5,650C 308.222,652.19 311.889,654.356 315.5,656.5 Z"/></g>
<g><path style="opacity:0.998" fill="#fdfefe" d="M 376.5,474.5 C 375.766,475.708 375.433,477.041 375.5,478.5C 375.167,479.5 374.5,480.167 373.5,480.5C 371.821,480.892 370.154,481.392 368.5,482C 360.167,482.333 351.833,482.667 343.5,483C 337.289,483.886 332.289,486.719 328.5,491.5C 328.5,492.167 328.167,492.5 327.5,492.5C 318.129,502.282 315.962,513.615 321,526.5C 322.497,530.165 324.497,533.498 327,536.5C 380.175,591.008 432.675,646.175 484.5,702C 496.79,714.026 510.456,715.693 525.5,707C 580.635,648.198 636.135,589.698 692,531.5C 702.346,509.531 696.512,493.531 674.5,483.5C 664.866,482.745 655.2,482.245 645.5,482C 643,480.833 641.167,479 640,476.5C 639.5,439.835 639.333,403.168 639.5,366.5C 678.501,366.333 717.501,366.5 756.5,367C 767.01,367.794 777.01,370.461 786.5,375C 809.758,389.295 822.924,410.129 826,437.5C 826.667,547.5 826.667,657.5 826,767.5C 824.976,776.289 823.309,784.955 821,793.5C 806.492,837.339 776.325,862.173 730.5,868C 578.167,868.667 425.833,868.667 273.5,868C 220.298,856.462 190.465,823.629 184,769.5C 183.333,657.5 183.333,545.5 184,433.5C 184.725,426.601 186.391,419.934 189,413.5C 200.736,385.763 221.569,370.263 251.5,367C 293.165,366.5 334.832,366.333 376.5,366.5C 376.5,402.5 376.5,438.5 376.5,474.5 Z M 315.5,656.5 C 316.911,658.914 318.911,660.581 321.5,661.5C 323.637,664.973 326.637,667.306 330.5,668.5C 331.585,670.587 333.251,671.92 335.5,672.5C 336.585,674.587 338.251,675.92 340.5,676.5C 342.963,680.3 346.296,682.967 350.5,684.5C 352.637,687.973 355.637,690.306 359.5,691.5C 360.585,693.587 362.251,694.92 364.5,695.5C 367.929,699.262 371.929,702.262 376.5,704.5C 377.262,706.262 378.596,707.262 380.5,707.5C 381.262,709.262 382.596,710.262 384.5,710.5C 386.57,712.964 388.404,715.631 390,718.5C 390.912,723.603 389.079,727.436 384.5,730C 372.473,730.793 360.473,730.626 348.5,729.5C 344.512,731.157 344.512,732.824 348.5,734.5C 353.276,740.941 359.276,745.941 366.5,749.5C 367.802,751.822 369.802,753.155 372.5,753.5C 372.5,754.5 372.5,755.5 372.5,756.5C 373.873,756.343 375.207,756.51 376.5,757C 412.272,775.408 450.272,783.075 490.5,780C 537.484,776.722 580.484,762.889 619.5,738.5C 621.764,736.686 624.097,734.853 626.5,733C 625.646,731.978 624.646,731.145 623.5,730.5C 620.549,731.357 617.549,731.357 614.5,730.5C 610.835,726.919 609.668,722.585 611,717.5C 613.661,713.673 616.828,710.339 620.5,707.5C 628.265,702.917 635.932,698.084 643.5,693C 644.252,692.329 644.586,691.496 644.5,690.5C 656.065,683.267 667.065,675.267 677.5,666.5C 683.318,664.024 688.318,660.358 692.5,655.5C 696.03,653.489 699.697,651.655 703.5,650C 710.375,648.521 716.208,650.354 721,655.5C 723.146,658.126 724.479,661.126 725,664.5C 725.667,703.167 725.667,741.833 725,780.5C 724.777,782.881 723.61,784.547 721.5,785.5C 720.641,788.452 718.641,790.285 715.5,791C 707.743,792.236 702.909,789.069 701,781.5C 700.637,777.134 700.637,772.801 701,768.5C 700.439,767.978 699.772,767.645 699,767.5C 636.553,808.497 567.72,828.497 492.5,827.5C 440.647,828.537 391.98,816.87 346.5,792.5C 339.68,787.588 332.68,782.922 325.5,778.5C 320.207,773.708 315.041,768.708 310,763.5C 308.378,763.954 307.212,764.954 306.5,766.5C 307.614,771.446 307.781,776.446 307,781.5C 305.291,789.279 300.458,792.445 292.5,791C 287.162,788.993 283.996,785.159 283,779.5C 282.333,740.833 282.333,702.167 283,663.5C 283.806,660.554 285.139,657.888 287,655.5C 289.852,653.665 292.686,651.831 295.5,650C 298.5,649.333 301.5,649.333 304.5,650C 308.222,652.19 311.889,654.356 315.5,656.5 Z"/></g>
<g><path style="opacity:0.025" fill="#040303" d="M 377.5,366.5 C 378.664,402.664 378.831,438.998 378,475.5C 377.623,476.942 376.79,477.942 375.5,478.5C 375.433,477.041 375.766,475.708 376.5,474.5C 377.498,438.671 377.832,402.671 377.5,366.5 Z"/></g>
<g><path style="opacity:0.394" fill="#787878" d="M 412.5,289.5 C 412.833,361.836 412.5,434.17 411.5,506.5C 410.893,506.376 410.56,506.043 410.5,505.5C 411.167,433.5 411.833,361.5 412.5,289.5 Z"/></g>
<g><path style="opacity:0.286" fill="#3d3d3d" d="M 527.5,289.5 C 528.5,401.332 528.833,513.332 528.5,625.5C 525.67,635.819 518.836,641.152 508,641.5C 496.276,640.937 489.443,634.937 487.5,623.5C 487.168,575.33 487.501,527.33 488.5,479.5C 488.333,527.834 488.5,576.168 489,624.5C 490.737,631.5 494.903,636.333 501.5,639C 513.65,641.177 522.15,636.677 527,625.5C 527.5,513.5 527.667,401.5 527.5,289.5 Z"/></g>
<g><path style="opacity:0.037" fill="#141212" d="M 373.5,480.5 C 372.942,481.79 371.942,482.623 370.5,483C 360.796,483.214 351.13,483.88 341.5,485C 336.834,486.666 332.501,488.833 328.5,491.5C 332.289,486.719 337.289,483.886 343.5,483C 351.833,482.667 360.167,482.333 368.5,482C 370.154,481.392 371.821,480.892 373.5,480.5 Z"/></g>
<g><path style="opacity:0.032" fill="#141313" d="M 674.5,483.5 C 696.512,493.531 702.346,509.531 692,531.5C 636.135,589.698 580.635,648.198 525.5,707C 510.456,715.693 496.79,714.026 484.5,702C 432.675,646.175 380.175,591.008 327,536.5C 324.497,533.498 322.497,530.165 321,526.5C 315.962,513.615 318.129,502.282 327.5,492.5C 318.312,504.947 317.479,517.947 325,531.5C 381.191,590.69 437.691,649.523 494.5,708C 504.497,712.757 514.164,712.091 523.5,706C 549.245,678.612 575.078,651.445 601,624.5C 602.879,622.473 604.046,620.14 604.5,617.5C 605.552,617.649 606.552,617.483 607.5,617C 635.801,588.138 663.635,558.971 691,529.5C 699.676,508.852 693.843,493.852 673.5,484.5C 674.167,484.5 674.5,484.167 674.5,483.5 Z"/></g>
<g><path style="opacity:0.004" fill="#171a18" d="M 384.5,541.5 C 385.833,542.167 385.833,542.167 384.5,541.5 Z"/></g>
<g><path style="opacity:0.004" fill="#0e0b0a" d="M 628.5,538.5 C 630.337,538.639 630.67,539.306 629.5,540.5C 628.702,540.043 628.369,539.376 628.5,538.5 Z"/></g>
<g><path style="opacity:0.714" fill="#8d8d8d" d="M 378.5,527.5 C 381.179,527.525 382.512,528.858 382.5,531.5C 380.833,530.5 379.5,529.167 378.5,527.5 Z"/></g>
<g><path style="opacity:0.082" fill="#262626" d="M 373.5,519.5 C 375.664,521.822 377.331,524.489 378.5,527.5C 375.318,525.807 373.652,523.141 373.5,519.5 Z"/></g>
<g><path style="opacity:0.021" fill="#0a0a0a" d="M 375.5,503.5 C 373.817,508.663 373.15,513.996 373.5,519.5C 372.355,515.689 372.188,511.689 373,507.5C 373.608,505.934 374.442,504.6 375.5,503.5 Z"/></g>
<g><path style="opacity:0.004" fill="#1b1818" d="M 329.5,493.5 C 330.833,494.167 330.833,494.167 329.5,493.5 Z"/></g>
<g><path style="opacity:0.075" fill="#181818" d="M 315.5,656.5 C 318.089,657.419 320.089,659.086 321.5,661.5C 318.911,660.581 316.911,658.914 315.5,656.5 Z"/></g>
<g><path style="opacity:0.051" fill="#191717" d="M 692.5,655.5 C 688.318,660.358 683.318,664.024 677.5,666.5C 681.959,662.103 686.959,658.436 692.5,655.5 Z"/></g>
<g><path style="opacity:0.286" fill="#232323" d="M 321.5,661.5 C 325.363,662.694 328.363,665.027 330.5,668.5C 326.637,667.306 323.637,664.973 321.5,661.5 Z"/></g>
<g><path style="opacity:0.02" fill="#1f1f1f" d="M 315.5,656.5 C 311.889,654.356 308.222,652.19 304.5,650C 301.5,649.333 298.5,649.333 295.5,650C 292.686,651.831 289.852,653.665 287,655.5C 285.139,657.888 283.806,660.554 283,663.5C 282.333,702.167 282.333,740.833 283,779.5C 283.996,785.159 287.162,788.993 292.5,791C 300.458,792.445 305.291,789.279 307,781.5C 307.781,776.446 307.614,771.446 306.5,766.5C 307.212,764.954 308.378,763.954 310,763.5C 315.041,768.708 320.207,773.708 325.5,778.5C 319.942,775.284 314.942,771.284 310.5,766.5C 310.44,765.957 310.107,765.624 309.5,765.5C 308.506,770.456 308.173,775.456 308.5,780.5C 307.072,790.966 301.072,794.799 290.5,792C 285.223,788.629 282.057,783.796 281,777.5C 280.333,740.167 280.333,702.833 281,665.5C 283.798,652.036 291.965,646.536 305.5,649C 309.439,650.791 312.772,653.291 315.5,656.5 Z"/></g>
<g><path style="opacity:0.286" fill="#2e2e2e" d="M 330.5,668.5 C 332.749,669.08 334.415,670.413 335.5,672.5C 333.251,671.92 331.585,670.587 330.5,668.5 Z"/></g>
<g><path style="opacity:0.063" fill="#1e1e1e" d="M 335.5,672.5 C 337.749,673.08 339.415,674.413 340.5,676.5C 338.251,675.92 336.585,674.587 335.5,672.5 Z"/></g>
<g><path style="opacity:0.035" fill="#1b1919" d="M 677.5,666.5 C 667.065,675.267 656.065,683.267 644.5,690.5C 654.96,681.769 665.96,673.769 677.5,666.5 Z"/></g>
<g><path style="opacity:0.022" fill="#131313" d="M 340.5,676.5 C 344.127,678.794 347.461,681.46 350.5,684.5C 346.296,682.967 342.963,680.3 340.5,676.5 Z"/></g>
<g><path style="opacity:0.027" fill="#161616" d="M 350.5,684.5 C 354.051,686.111 357.051,688.444 359.5,691.5C 355.637,690.306 352.637,687.973 350.5,684.5 Z"/></g>
<g><path style="opacity:0.037" fill="#141414" d="M 359.5,691.5 C 361.749,692.08 363.415,693.413 364.5,695.5C 362.251,694.92 360.585,693.587 359.5,691.5 Z"/></g>
<g><path style="opacity:0.037" fill="#171817" d="M 364.5,695.5 C 369.071,697.738 373.071,700.738 376.5,704.5C 371.929,702.262 367.929,699.262 364.5,695.5 Z"/></g>
<g><path style="opacity:0.041" fill="#181617" d="M 644.5,690.5 C 644.586,691.496 644.252,692.329 643.5,693C 635.932,698.084 628.265,702.917 620.5,707.5C 627.939,701.063 635.939,695.397 644.5,690.5 Z"/></g>
<g><path style="opacity:0.216" fill="#1b1b1b" d="M 376.5,704.5 C 378.404,704.738 379.738,705.738 380.5,707.5C 378.596,707.262 377.262,706.262 376.5,704.5 Z"/></g>
<g><path style="opacity:0.216" fill="#161616" d="M 380.5,707.5 C 382.404,707.738 383.738,708.738 384.5,710.5C 382.596,710.262 381.262,709.262 380.5,707.5 Z"/></g>
<g><path style="opacity:0.035" fill="#121010" d="M 620.5,707.5 C 616.828,710.339 613.661,713.673 611,717.5C 609.668,722.585 610.835,726.919 614.5,730.5C 611.548,729.641 609.715,727.641 609,724.5C 608.553,716.088 612.386,710.421 620.5,707.5 Z"/></g>
<g><path style="opacity:0.021" fill="#0e0e0e" d="M 384.5,710.5 C 389.383,712.229 391.716,715.729 391.5,721C 391.802,725.732 389.802,729.065 385.5,731C 372.833,731.333 360.167,731.667 347.5,732C 348.252,732.671 348.586,733.504 348.5,734.5C 344.512,732.824 344.512,731.157 348.5,729.5C 360.473,730.626 372.473,730.793 384.5,730C 389.079,727.436 390.912,723.603 390,718.5C 388.404,715.631 386.57,712.964 384.5,710.5 Z"/></g>
<g><path style="opacity:0.008" fill="#0d080c" d="M 619.5,738.5 C 621.76,739.238 621.927,740.238 620,741.5C 619.517,740.552 619.351,739.552 619.5,738.5 Z"/></g>
<g><path style="opacity:0.286" fill="#171717" d="M 348.5,734.5 C 354.506,739.507 360.506,744.507 366.5,749.5C 359.276,745.941 353.276,740.941 348.5,734.5 Z"/></g>
<g><path style="opacity:0.037" fill="#141414" d="M 366.5,749.5 C 368.853,750.34 370.853,751.674 372.5,753.5C 369.802,753.155 367.802,751.822 366.5,749.5 Z"/></g>
<g><path style="opacity:0.014" fill="#1a1818" d="M 614.5,730.5 C 617.549,731.357 620.549,731.357 623.5,730.5C 624.646,731.145 625.646,731.978 626.5,733C 624.097,734.853 621.764,736.686 619.5,738.5C 580.484,762.889 537.484,776.722 490.5,780C 450.272,783.075 412.272,775.408 376.5,757C 375.207,756.51 373.873,756.343 372.5,756.5C 372.5,755.5 372.5,754.5 372.5,753.5C 411.841,774.662 453.841,782.829 498.5,778C 543.987,773.562 585.654,758.729 623.5,733.5C 620.893,732.682 618.226,732.182 615.5,732C 614.944,731.617 614.611,731.117 614.5,730.5 Z"/></g>
<g><path style="opacity:0.38" fill="#b4b2b3" d="M 310.5,766.5 C 309.833,771.167 309.167,775.833 308.5,780.5C 308.173,775.456 308.506,770.456 309.5,765.5C 310.107,765.624 310.44,765.957 310.5,766.5 Z"/></g>
<g><path style="opacity:0.216" fill="#181818" d="M 325.5,778.5 C 332.68,782.922 339.68,787.588 346.5,792.5C 338.631,789.071 331.631,784.404 325.5,778.5 Z"/></g>
<g><path style="opacity:0.035" fill="#181818" d="M 346.5,792.5 C 391.98,816.87 440.647,828.537 492.5,827.5C 567.72,828.497 636.553,808.497 699,767.5C 699.772,767.645 700.439,767.978 701,768.5C 700.637,772.801 700.637,777.134 701,781.5C 702.909,789.069 707.743,792.236 715.5,791C 718.641,790.285 720.641,788.452 721.5,785.5C 723.61,784.547 724.777,782.881 725,780.5C 725.667,741.833 725.667,703.167 725,664.5C 724.479,661.126 723.146,658.126 721,655.5C 716.208,650.354 710.375,648.521 703.5,650C 699.697,651.655 696.03,653.489 692.5,655.5C 697.999,648.934 704.999,646.768 713.5,649C 720.651,651.769 725.151,656.936 727,664.5C 727.667,702.5 727.667,740.5 727,778.5C 722.912,792.638 714.578,795.972 702,788.5C 701.333,787.167 700.667,785.833 700,784.5C 699.667,779.167 699.333,773.833 699,768.5C 637.364,809.483 569.364,829.483 495,828.5C 444.701,830.382 397.201,819.882 352.5,797C 350.253,795.723 348.253,794.223 346.5,792.5 Z"/></g>
<g><path style="opacity:0.004" fill="#131112" d="M 191.5,817.5 C 193.085,818.002 193.585,819.002 193,820.5C 191.961,819.756 191.461,818.756 191.5,817.5 Z"/></g>
<g><path style="opacity:0.012" fill="#110f10" d="M 193.5,821.5 C 194.688,822.684 195.855,822.684 197,821.5C 197.5,822 198,822.5 198.5,823C 197.192,823.824 195.692,824.324 194,824.5C 192.272,823.648 192.105,822.648 193.5,821.5 Z"/></g>
<g><path style="opacity:0.012" fill="#0e0e0e" d="M 209.5,837.5 C 211.76,838.238 211.927,839.238 210,840.5C 208.272,839.648 208.105,838.648 209.5,837.5 Z"/></g>
<g><path style="opacity:0.006" fill="#0c0c0c" d="M 796.5,844.5 C 797.5,844.5 798.5,844.5 799.5,844.5C 799.5,845.5 799.5,846.5 799.5,847.5C 798.5,847.5 797.5,847.5 796.5,847.5C 796.5,846.5 796.5,845.5 796.5,844.5 Z"/></g>
<g><path style="opacity:0.008" fill="#0d0b0c" d="M 773.5,859.5 C 774.5,859.5 775.5,859.5 776.5,859.5C 776.5,860.5 776.5,861.5 776.5,862.5C 775.5,862.5 774.5,862.5 773.5,862.5C 773.5,861.5 773.5,860.5 773.5,859.5 Z"/></g>
<g><path style="opacity:0.004" fill="#181314" d="M 769.5,861.5 C 770.833,862.167 770.833,862.167 769.5,861.5 Z"/></g>
<g><path style="opacity:0.004" fill="#171714" d="M 257.5,868.5 C 258.833,869.167 258.833,869.167 257.5,868.5 Z"/></g>
<g><path style="opacity:0.007" fill="#0c0a0b" d="M -0.5,955.5 C 1.80673,959.437 4.14006,963.437 6.5,967.5C 10.3196,970.155 13.8196,973.155 17,976.5C 20.6003,988.372 26.2669,999.039 34,1008.5C 40.3176,1011.72 46.8176,1014.55 53.5,1017C 55.7655,1018.76 57.4322,1020.92 58.5,1023.5C 38.8333,1023.5 19.1667,1023.5 -0.5,1023.5C -0.5,1000.83 -0.5,978.167 -0.5,955.5 Z"/></g>
</svg>
